<svg xmlns="http://www.w3.org/2000/svg" xmlns:xlink="http://www.w3.org/1999/xlink" viewBox="0 0 181 54"><defs><linearGradient x1="61.29%" y1="95.57%" x2="25.96%" y2="27.84%" id="c"><stop stop-color="#00A0FF" offset="0%"/><stop stop-color="#00A1FF" offset=".66%"/><stop stop-color="#00BEFF" offset="26.01%"/><stop stop-color="#00D2FF" offset="51.22%"/><stop stop-color="#00DFFF" offset="76.04%"/><stop stop-color="#00E3FF" offset="100%"/></linearGradient><linearGradient x1="107.59%" y1="50.87%" x2="-130.46%" y2="50.87%" id="f"><stop stop-color="#FFE000" offset="0%"/><stop stop-color="#FFBD00" offset="40.87%"/><stop stop-color="orange" offset="77.54%"/><stop stop-color="#FF9C00" offset="100%"/></linearGradient><linearGradient x1="86.73%" y1="69.33%" x2="-50.48%" y2="-37.05%" id="i"><stop stop-color="#FF3A44" offset="0%"/><stop stop-color="#C31162" offset="100%"/></linearGradient><linearGradient x1="-19.33%" y1="112.41%" x2="41.84%" y2="65.06%" id="l"><stop stop-color="#32A071" offset="0%"/><stop stop-color="#2DA771" offset="6.85%"/><stop stop-color="#15CF74" offset="47.62%"/><stop stop-color="#06E775" offset="80.09%"/><stop stop-color="#00F076" offset="100%"/></linearGradient><linearGradient x1="6809.6%" y1="4300.35%" x2="-17387.4%" y2="4300.35%" id="o"><stop stop-color="#CCB300" offset="0%"/><stop stop-color="#CC9700" offset="40.87%"/><stop stop-color="#CC8400" offset="77.54%"/><stop stop-color="#CC7D00" offset="100%"/></linearGradient><linearGradient x1="86.25%" y1="69.44%" x2="-50.14%" y2="-1.91%" id="r"><stop stop-color="#CC2E36" offset="0%"/><stop stop-color="#9C0E4E" offset="100%"/></linearGradient><linearGradient x1="308.14%" y1="1531.75%" x2="-66.67%" y2="449.57%" id="u"><stop stop-color="#008DE0" offset="0%"/><stop stop-color="#008DE0" offset=".66%"/><stop stop-color="#00A7E0" offset="26.01%"/><stop stop-color="#00B8E0" offset="51.22%"/><stop stop-color="#00C4E0" offset="76.04%"/><stop stop-color="#00C7E0" offset="100%"/></linearGradient><linearGradient x1="14404.35%" y1="10180.7%" x2="-8353.95%" y2="-12577.6%" id="x"><stop stop-color="#E0333C" offset="0%"/><stop stop-color="#AB0F56" offset="100%"/></linearGradient><linearGradient x1="112.79%" y1="100.02%" x2="-288.23%" y2="100.02%" id="A"><stop stop-color="#E0C500" offset="0%"/><stop stop-color="#E0A600" offset="40.87%"/><stop stop-color="#E09100" offset="77.54%"/><stop stop-color="#E08900" offset="100%"/></linearGradient><linearGradient x1="112.79%" y1="-.02%" x2="-288.2%" y2="-.02%" id="D"><stop stop-color="#FFE840" offset="0%"/><stop stop-color="#FFCE40" offset="40.87%"/><stop stop-color="#FFBC40" offset="77.54%"/><stop stop-color="#FFB540" offset="100%"/></linearGradient><linearGradient x1="306.91%" y1="23.38%" x2="-66.11%" y2="-1009.83%" id="G"><stop stop-color="#40B8FF" offset="0%"/><stop stop-color="#40B9FF" offset=".66%"/><stop stop-color="#40CEFF" offset="26.01%"/><stop stop-color="#40DDFF" offset="51.22%"/><stop stop-color="#40E7FF" offset="76.04%"/><stop stop-color="#40EAFF" offset="100%"/></linearGradient><linearGradient x1="-18.81%" y1="85.52%" x2="42.1%" y2="53.66%" id="J"><stop stop-color="#65B895" offset="0%"/><stop stop-color="#62BD95" offset="6.85%"/><stop stop-color="#50DB97" offset="47.62%"/><stop stop-color="#44ED98" offset="80.09%"/><stop stop-color="#40F498" offset="100%"/></linearGradient><path d="M.81.01l-.1.1A2.67 2.67 0 00.1 1.98v-.2 29.5-.2c0 .9.26 1.57.71 1.97l16.52-16.52L.81.01M.1 31.28" id="a"/><path d="M5.64.03l.12.07 6.53 3.7L5.76.1 5.64.03m0 .2l-5.5 5.5 5.5 5.51 6.65-3.78c.84-.48 1.31-1.1 1.4-1.73-.09-.63-.56-1.25-1.4-1.73L5.64.22" id="d"/><path d="M1.32.05a1.72 1.72 0 010 0m0 .2C.86.25.46.4.15.68L16.66 17.2l5.51-5.5L2.82.7a3.07 3.07 0 00-1.5-.45M.14.49L.06.57.14.5" id="g"/><path d="M16.53.13L.01 16.65c.32.28.72.43 1.18.43.45 0 .96-.14 1.5-.44l19.35-11-5.5-5.5m5.62 5.62L2.68 16.83c-.53.3-1.04.45-1.5.45h.01c.45 0 .96-.14 1.5-.45L22.15 5.76" id="j"/><path id="m" d="M.04.16l.12.07L.04.16"/><path d="M1.33.05C.86.05.46.2.15.5l-.1.08v.01l.1.1C.46.4.86.25 1.32.25c.46 0 .96.14 1.5.44l19.35 11 .13-.12-.13-.07L2.82.5a3.19 3.19 0 00-1.5-.45" id="p"/><path d="M.71.05A2.67 2.67 0 00.1 1.92v.2C.1 1.29.33.65.7.24l.1-.1-.1-.1" id="s"/><path id="v" d="M.05.05l.1.1-.1-.1"/><path d="M.16.1L.04.22 6.69 4c.84.48 1.31 1.1 1.4 1.73 0-.23-.06-.46-.16-.69-.2-.45-.62-.88-1.24-1.23L.16.1" id="y"/><path d="M8.08.13c-.08.63-.55 1.25-1.4 1.73L.05 5.64l.12.12 6.53-3.7c.93-.53 1.4-1.23 1.4-1.93" id="B"/><path d="M.1.01V.45c.04.7.26 1.26.61 1.63l.1-.1C.36 1.58.1.91.1.01" id="E"/><path d="M22.17.04l-19.35 11c-.54.3-1.05.44-1.5.44-.46 0-.86-.15-1.18-.43l-.1.1.1.1c.32.28.72.43 1.17.43h.01c.45 0 .96-.15 1.5-.45L22.3.16l-.13-.12" id="H"/></defs><g fill="none" fill-rule="evenodd"><path d="M.33 47c0 3.67 3 6.67 6.67 6.67h166.67c3.66 0 6.66-3 6.66-6.67V7c0-3.67-3-6.67-6.66-6.67H7C3.33.33.33 3.33.33 7v40" fill="#FFF" fill-rule="nonzero"/><path d="M173.67 53.67H7c-3.67 0-6.67-3-6.67-6.67V7C.33 3.33 3.33.33 7 .33h166.67c3.66 0 6.66 3 6.66 6.67v40c0 3.67-3 6.67-6.66 6.67" fill="#000" fill-rule="nonzero"/><path d="M173.67.33H7C3.33.33.33 3.33.33 7v40c0 3.67 3 6.67 6.67 6.67h166.67c3.66 0 6.66-3 6.66-6.67V7c0-3.67-3-6.67-6.66-6.67m0 1.07a5.6 5.6 0 015.6 5.6v40a5.6 5.6 0 01-5.6 5.6H7A5.6 5.6 0 011.4 47V7A5.6 5.6 0 017 1.4h166.67" fill="#A6A6A6" fill-rule="nonzero"/><path d="M63.56 14c0 1.1-.33 2-1 2.66a3.88 3.88 0 01-2.93 1.19c-1.16 0-2.14-.4-2.95-1.2-.8-.8-1.21-1.8-1.21-2.98 0-1.19.4-2.18 1.21-2.98.8-.8 1.8-1.2 2.95-1.2.57 0 1.12.1 1.64.33.52.23.94.52 1.25.9l-.7.7a2.7 2.7 0 00-2.2-.95c-.84 0-1.56.3-2.18.89-.61.6-.92 1.36-.92 2.3 0 .95.3 1.72.92 2.31.62.6 1.34.9 2.19.9.89 0 1.63-.3 2.23-.9.39-.39.61-.93.67-1.62h-2.9v-.96h3.87c.04.2.06.4.06.6" fill="#FFF" fill-rule="nonzero"/><path d="M63.56 14h-.14c0 1.08-.32 1.93-.95 2.57a3.75 3.75 0 01-2.84 1.14 3.9 3.9 0 01-2.85-1.16 3.9 3.9 0 01-1.18-2.88c0-1.16.4-2.1 1.18-2.89a3.89 3.89 0 012.85-1.16 4 4 0 011.59.33c.5.21.9.5 1.2.85l.1-.08-.1-.1-.7.7.1.1.1-.09c-.56-.66-1.33-1-2.3-1-.87 0-1.64.32-2.27.93a3.2 3.2 0 00-.96 2.4c0 .98.32 1.8.96 2.41.63.61 1.4.93 2.28.93.92 0 1.7-.32 2.32-.94.42-.41.65-.99.71-1.7l.02-.14h-2.92v-.7h3.74v-.13l-.13.02c.04.2.05.4.05.58h.27c0-.2-.02-.41-.06-.63l-.02-.1H59.5V14.47h3.04v-.13l-.13-.01a2.39 2.39 0 01-.63 1.53 2.9 2.9 0 01-2.14.86 2.9 2.9 0 01-2.1-.85 2.93 2.93 0 01-.88-2.21c0-.92.3-1.65.88-2.21a2.9 2.9 0 012.1-.86c.9 0 1.58.3 2.08.9l.1.12.8-.8.09-.1-.08-.09c-.33-.39-.76-.7-1.3-.93a4.26 4.26 0 00-1.7-.35c-1.18 0-2.2.42-3.03 1.24a4.16 4.16 0 00-1.25 3.08c0 1.21.41 2.25 1.25 3.07a4.16 4.16 0 003.04 1.24c1.23 0 2.25-.41 3.03-1.23l-.1-.09.1.1a3.75 3.75 0 001.03-2.77h-.13M69.7 10.65h-3.64v2.54h3.29v.96h-3.29v2.53h3.64v.99h-4.67v-8h4.67v.98" fill="#FFF" fill-rule="nonzero"/><path fill="#FFF" fill-rule="nonzero" d="M69.7 10.65v-.13h-3.77v2.8h3.28v.7h-3.28v2.8h3.64v.71h-4.4V9.8h4.4v.85h.13v-.13.13h.14V9.53H64.9v8.27h4.94v-1.25h-3.65v-2.27h3.29v-1.23h-3.29v-2.27h3.65v-.13h-.14M74.04 17.67H73v-7.02h-2.23v-.98h5.5v.98h-2.24v7.02"/><path fill="#FFF" fill-rule="nonzero" d="M74.04 17.67v-.14h-.9v-7.01h-2.23V9.8h5.23v.72h-2.23v7.15h.13v-.14.14h.13v-6.89h2.24V9.53h-5.77v1.25h2.24v7.02h1.29v-.13h-.13M80.25 17.67v-8h1.03v8h-1.03"/><path fill="#FFF" fill-rule="nonzero" d="M80.25 17.67h.13V9.8h.76v7.73h-.89v.14h.13-.13v.13H81.41V9.53h-1.29v8.27h.13v-.13M85.84 17.67H84.8v-7.02h-2.23v-.98h5.5v.98h-2.24v7.02"/><path fill="#FFF" fill-rule="nonzero" d="M85.84 17.67v-.14h-.9v-7.01h-2.23V9.8h5.23v.72H85.7v7.15h.14v-.14.14h.13v-6.89h2.24V9.53h-5.77v1.25h2.24v7.02h1.29v-.13h-.13M93.37 15.96c.6.6 1.32.9 2.18.9.85 0 1.58-.3 2.17-.9.6-.6.89-1.36.89-2.3 0-.92-.3-1.69-.9-2.29-.58-.6-1.3-.9-2.16-.9-.86 0-1.59.3-2.18.9-.59.6-.89 1.37-.89 2.3 0 .93.3 1.7.9 2.3zm5.1.67a3.93 3.93 0 01-2.92 1.22 4.09 4.09 0 01-4.11-4.18 4.09 4.09 0 014.1-4.18c1.17 0 2.14.4 2.93 1.22a4.1 4.1 0 011.19 2.96 4.1 4.1 0 01-1.18 2.96"/><path d="M93.37 15.96l-.1.1c.62.62 1.39.94 2.28.94.88 0 1.65-.32 2.26-.94.62-.63.93-1.43.93-2.4 0-.95-.3-1.76-.93-2.38a3.07 3.07 0 00-2.26-.94c-.9 0-1.66.31-2.27.94a3.27 3.27 0 00-.93 2.39c0 .96.31 1.76.93 2.39l.1-.1.09-.1a3 3 0 01-.85-2.2 3 3 0 01.85-2.2 2.8 2.8 0 012.08-.86c.82 0 1.5.29 2.07.86a3 3 0 01.85 2.2 3 3 0 01-.85 2.2 2.8 2.8 0 01-2.07.87 2.8 2.8 0 01-2.08-.86l-.1.1zm5.1.67l-.09-.09a3.8 3.8 0 01-2.83 1.17 3.96 3.96 0 01-3.98-4.05c0-1.13.38-2.08 1.14-2.87a3.79 3.79 0 012.84-1.17 3.96 3.96 0 013.98 4.05c0 1.14-.38 2.08-1.15 2.87l.1.1.1.09a4.23 4.23 0 001.21-3.06 4.23 4.23 0 00-4.24-4.32 4.23 4.23 0 00-4.24 4.31c0 1.2.4 2.24 1.2 3.07h.01c.8.83 1.83 1.25 3.03 1.25 1.2 0 2.22-.42 3.03-1.25l-.1-.1M101.1 17.67v-8h1.25l3.89 6.22h.04l-.04-1.54V9.67h1.03v8h-1.07l-4.07-6.53h-.05l.05 1.54v4.99h-1.03" fill="#FFF" fill-rule="nonzero"/><path fill="#FFF" fill-rule="nonzero" d="M101.1 17.67h.13V9.8h1.05l3.89 6.22h.25l-.05-1.67V9.8h.76v7.73h-.86l-4.07-6.52h-.25l.04 1.68v4.84h-.89v.14h.13-.13v.13H102.26v-5.12l-.04-1.54h-.14v.13h.05v-.13l-.12.07 4.11 6.59H107.4V9.53h-1.29v4.82l.04 1.54h.13v-.13h-.04v.13l.11-.07-3.92-6.29h-1.46v8.27h.13v-.13M142.91 40.33h2.5V23.67h-2.5v16.66zm22.41-10.66l-2.85 7.23h-.08l-2.96-7.23h-2.68l4.44 10.1-2.54 5.62h2.6l6.84-15.72h-2.77zm-14.1 8.77c-.82 0-1.96-.4-1.96-1.42 0-1.28 1.42-1.78 2.64-1.78 1.1 0 1.6.24 2.27.56a3.02 3.02 0 01-2.96 2.64zm.3-9.14c-1.8 0-3.67.8-4.44 2.56l2.2.92c.48-.92 1.35-1.22 2.28-1.22 1.28 0 2.6.77 2.61 2.14v.17a5.5 5.5 0 00-2.6-.64c-2.37 0-4.8 1.3-4.8 3.75 0 2.23 1.96 3.67 4.14 3.67 1.68 0 2.6-.75 3.18-1.63h.08v1.29h2.4v-6.4c0-2.95-2.2-4.6-5.06-4.6zm-15.38 2.4h-3.54v-5.72h3.54a2.89 2.89 0 012.91 2.86 2.9 2.9 0 01-2.91 2.86zm-.07-8.03h-5.96v16.66h2.49v-6.31h3.47c2.76 0 5.47-2 5.47-5.18 0-3.18-2.7-5.17-5.47-5.17zm-32.5 14.77c-1.72 0-3.16-1.44-3.16-3.41 0-2 1.44-3.46 3.16-3.46 1.7 0 3.03 1.46 3.03 3.46 0 1.97-1.34 3.41-3.03 3.41zm2.85-7.84h-.08a3.93 3.93 0 00-2.99-1.26 5.64 5.64 0 00-5.43 5.69c0 3.18 2.6 5.65 5.43 5.65 1.35 0 2.43-.6 2.99-1.3h.08v.82c0 2.17-1.16 3.33-3.03 3.33a3.14 3.14 0 01-2.85-2.01l-2.17.9a5.4 5.4 0 005.02 3.35c2.93 0 5.4-1.72 5.4-5.9v-10.2h-2.37v.93zm4.08 9.73h2.5V23.66h-2.5v16.67zm6.17-5.5a3.11 3.11 0 012.96-3.3c1 0 1.83.49 2.1 1.2l-5.06 2.1zm7.73-1.89c-.47-1.26-1.9-3.6-4.85-3.6-2.92 0-5.35 2.3-5.35 5.67 0 3.18 2.4 5.67 5.63 5.67 2.6 0 4.1-1.6 4.72-2.52l-1.93-1.29a3.24 3.24 0 01-2.8 1.57 2.89 2.89 0 01-2.74-1.72l7.58-3.13-.26-.65zM64 31.08v2.4h5.75a5.02 5.02 0 01-1.31 3.03 5.9 5.9 0 01-4.45 1.76 6.32 6.32 0 01-6.31-6.4 6.32 6.32 0 0110.65-4.68l1.7-1.7a8.4 8.4 0 00-6.04-2.43 8.93 8.93 0 00-8.93 8.81c0 4.85 4.08 8.8 8.93 8.8 2.62 0 4.6-.85 6.14-2.46 1.6-1.6 2.09-3.83 2.09-5.63a7.8 7.8 0 00-.13-1.5h-8.1zm14.76 7.36c-1.72 0-3.2-1.41-3.2-3.43 0-2.04 1.48-3.44 3.2-3.44 1.72 0 3.2 1.4 3.2 3.44 0 2.02-1.48 3.43-3.2 3.43zm0-9.1A5.59 5.59 0 0073.07 35a5.6 5.6 0 005.7 5.67A5.6 5.6 0 0084.45 35a5.59 5.59 0 00-5.7-5.67zm12.42 9.1c-1.72 0-3.2-1.41-3.2-3.43 0-2.04 1.48-3.44 3.2-3.44 1.72 0 3.2 1.4 3.2 3.44 0 2.02-1.48 3.43-3.2 3.43zm0-9.1a5.59 5.59 0 00-5.7 5.67 5.6 5.6 0 005.7 5.67 5.6 5.6 0 005.7-5.67 5.59 5.59 0 00-5.7-5.67"/><g transform="matrix(1 0 0 -1 13.53 43.53)"><mask id="b" fill="#fff"><use xlink:href="#a"/></mask><g mask="url(#b)" fill="url(#c)" fill-rule="nonzero"><path d="M.81.01l-.1.1A2.67 2.67 0 00.1 1.98v-.2 29.5-.2c0 .9.26 1.57.71 1.97l16.52-16.52L.81.01M.1 31.28"/></g></g><g transform="matrix(1 0 0 -1 30.73 32.73)"><mask id="e" fill="#fff"><use xlink:href="#d"/></mask><g mask="url(#e)" fill="url(#f)" fill-rule="nonzero"><path d="M5.64.03l.12.07 6.53 3.7L5.76.1 5.64.03m0 .2l-5.5 5.5 5.5 5.51 6.65-3.78c.84-.48 1.31-1.1 1.4-1.73-.09-.63-.56-1.25-1.4-1.73L5.64.22"/></g></g><g transform="matrix(1 0 0 -1 14.2 44.2)"><mask id="h" fill="#fff"><use xlink:href="#g"/></mask><g mask="url(#h)" fill="url(#i)" fill-rule="nonzero"><path d="M1.32.05a1.72 1.72 0 010 0m0 .2C.86.25.46.4.15.68L16.66 17.2l5.51-5.5L2.82.7a3.07 3.07 0 00-1.5-.45M.14.49L.06.57.14.5"/></g></g><g transform="matrix(1 0 0 -1 14.33 27.13)"><mask id="k" fill="#fff"><use xlink:href="#j"/></mask><g mask="url(#k)" fill="url(#l)" fill-rule="nonzero"><path d="M16.53.13L.01 16.65c.32.28.72.43 1.18.43.45 0 .96-.14 1.5-.44l19.35-11-5.5-5.5m5.62 5.62L2.68 16.83c-.53.3-1.04.45-1.5.45h.01c.45 0 .96-.14 1.5-.45L22.15 5.76"/></g></g><path d="M15.65 44.15c.42-.03.88-.17 1.37-.45l19.35-11-19.35 11c-.49.28-.95.42-1.37.45" fill="#000" fill-rule="nonzero"/><g transform="matrix(1 0 0 -1 36.33 32.87)"><mask id="n" fill="#fff"><use xlink:href="#m"/></mask><g mask="url(#n)" fill="url(#o)" fill-rule="nonzero"><path d="M.04.16l.12.07L.04.16"/></g></g><g transform="matrix(1 0 0 -1 14.2 44.2)"><mask id="q" fill="#fff"><use xlink:href="#p"/></mask><g mask="url(#q)" fill="url(#r)" fill-rule="nonzero"><path d="M1.33.05C.86.05.46.2.15.5l-.1.08v.01l.1.1C.46.4.86.25 1.32.25c.46 0 .96.14 1.5.44l19.35 11 .13-.12-.13-.07L2.82.5a3.19 3.19 0 00-1.5-.45"/></g></g><path d="M14.25 43.62a2.67 2.67 0 000 0" fill="#000" fill-rule="nonzero"/><g transform="matrix(1 0 0 -1 13.53 43.67)"><mask id="t" fill="#fff"><use xlink:href="#s"/></mask><g mask="url(#t)" fill="url(#u)" fill-rule="nonzero"><path d="M.71.05A2.67 2.67 0 00.1 1.92v.2C.1 1.29.33.65.7.24l.1-.1-.1-.1"/></g></g><g transform="matrix(1 0 0 -1 14.2 43.67)"><mask id="w" fill="#fff"><use xlink:href="#v"/></mask><g mask="url(#w)" fill="url(#x)" fill-rule="nonzero"><path d="M.05.05l.1.1-.1-.1"/></g></g><path d="M44.26 27.7a1.66 1.66 0 010 0" fill="#000" fill-rule="nonzero"/><g transform="matrix(1 0 0 -1 36.33 32.73)"><mask id="z" fill="#fff"><use xlink:href="#y"/></mask><g mask="url(#z)" fill="url(#A)" fill-rule="nonzero"><path d="M.16.1L.04.22 6.69 4c.84.48 1.31 1.1 1.4 1.73 0-.23-.06-.46-.16-.69-.2-.45-.62-.88-1.24-1.23L.16.1"/></g></g><path d="M44.42 27c0-.7-.47-1.4-1.4-1.92l-6.52-3.71 6.52 3.7c.93.54 1.4 1.23 1.4 1.93" fill="#404040" fill-rule="nonzero"/><g transform="matrix(1 0 0 -1 36.33 27.13)"><mask id="C" fill="#fff"><use xlink:href="#B"/></mask><g mask="url(#C)" fill="url(#D)" fill-rule="nonzero"><path d="M8.08.13c-.08.63-.55 1.25-1.4 1.73L.05 5.64l.12.12 6.53-3.7c.93-.53 1.4-1.23 1.4-1.93"/></g></g><path d="M13.64 12.02c.07-1.37.82-2.16 1.87-2.17-.45 0-.85.16-1.16.44l-.1.1c-.35.36-.57.92-.61 1.63" fill="#404040" fill-rule="nonzero"/><g transform="matrix(1 0 0 -1 13.53 12.47)"><mask id="F" fill="#fff"><use xlink:href="#E"/></mask><g mask="url(#F)" fill="url(#G)" fill-rule="nonzero"><path d="M.1.01V.45c.04.7.26 1.26.61 1.63l.1-.1C.36 1.58.1.91.1.01"/></g></g><path d="M15.51 9.85" fill="#404040" fill-rule="nonzero"/><g transform="matrix(1 0 0 -1 14.2 21.53)"><mask id="I" fill="#fff"><use xlink:href="#H"/></mask><g mask="url(#I)" fill="url(#J)" fill-rule="nonzero"><path d="M22.17.04l-19.35 11c-.54.3-1.05.44-1.5.44-.46 0-.86-.15-1.18-.43l-.1.1.1.1c.32.28.72.43 1.17.43h.01c.45 0 .96-.15 1.5-.45L22.3.16l-.13-.12"/></g></g></g></svg>